Coordinates
version=1
nRows=22
nColumns=24
inDegrees=yes

Units are S.I. units (second, meters, Newtons, ...)
Angles are in degrees.

endheader
time	pelvis_tilt	pelvis_list	pelvis_rotation	pelvis_tx	pelvis_ty	pelvis_tz	hip_flexion_r	hip_adduction_r	hip_rotation_r	knee_angle_r	ankle_angle_r	subtalar_angle_r	mtp_angle_r	hip_flexion_l	hip_adduction_l	hip_rotation_l	knee_angle_l	ankle_angle_l	subtalar_angle_l	mtp_angle_l	lumbar_extension	lumbar_bending	lumbar_rotation
      5.25000000	     -4.90360699	      0.97333984	     -6.31334567	      2.31885502	      0.70566689	     -0.20616068	     21.58443485	      0.71489590	     -1.60959018	    -59.93162850	     13.09204819	      4.09553520	      0.00000000	      7.64666589	      6.36129052	     18.66686905	     -3.80735005	     -1.11349522	    -30.89311970	      0.00000000	    -12.05179181	     -4.66488639	      1.06899170
      5.26000000	     -5.17255365	      0.02586915	     -5.47793328	      2.33273522	      0.70727517	     -0.20639730	     23.03581711	      1.85674800	     -2.66554940	    -57.56977141	     13.56264640	      1.34091860	      0.00000000	      5.57578958	      5.15884013	     19.79582971	     -1.89939238	     -1.36757470	    -31.34168756	      0.00000000	    -12.01668023	     -3.48617568	      0.28282361
      5.27000000	     -5.48102514	     -0.78516794	     -4.70872388	      2.34649834	      0.70820502	     -0.20652856	     24.49265664	      2.86408154	     -3.52930845	    -54.92979979	     13.78433699	     -1.46062196	      0.00000000	      3.67299825	      4.05557699	     20.57972064	     -0.09113963	     -1.34300088	    -31.43463379	      0.00000000	    -11.94091789	     -2.48964642	     -0.44988465
      5.28000000	     -5.63075963	     -1.55053994	     -3.85721398	      2.36019345	      0.70880198	     -0.20681390	     25.61541176	      3.75990158	     -4.28815657	    -51.86518256	     13.98182559	     -4.00545112	      0.00000000	      1.75338741	      3.02843806	     21.25237488	      1.52817420	     -1.32664248	    -31.57466912	      0.00000000	    -12.10313929	     -1.51689481	     -1.26650984
      5.29000000	     -5.83405050	     -2.10107355	     -3.13614254	      2.37381469	      0.70868452	     -0.20691484	     26.77439978	      4.46280339	     -4.76426452	    -48.62733365	     13.98755882	     -6.28562748	      0.00000000	     -0.00135484	      2.21441377	     21.69415615	      3.01774353	     -1.07557732	    -31.55353935	      0.00000000	    -12.16085183	     -0.82517514	     -2.01695570
      5.30000000	     -5.83343731	     -2.54005596	     -2.36827244	      2.38743125	      0.70836122	     -0.20712120	     27.55119337	      4.99640899	     -5.09343832	    -45.03656566	     13.98313495	     -8.05113019	      0.00000000	     -1.83725989	      1.56116532	     22.07599955	      4.29012876	     -0.86049941	    -31.59370199	      0.00000000	    -12.47660825	     -0.24373665	     -2.76966327
      5.31000000	     -5.93040959	     -2.73407848	     -1.70483140	      2.40096529	      0.70735115	     -0.20712567	     28.37825728	      5.33036307	     -5.08895850	    -41.29760495	     13.90186465	     -9.40723384	      0.00000000	     -3.43715312	      1.17629454	     22.41755849	      5.33329544	     -0.44309137	    -31.61633709	      0.00000000	    -12.63337091	      0.01210986	     -3.51719971
      5.32000000	     -5.84659456	     -2.79244940	     -1.03025191	      2.41454898	      0.70617358	     -0.20714571	     28.85120415	      5.49741330	     -4.89994550	    -37.29444567	     13.79659362	    -10.18894052	      0.00000000	     -5.13313408	      0.96331475	     22.74709065	      6.18462162	     -0.04582587	    -31.70079101	      0.00000000	    -12.99432700	      0.10914952	     -4.26377302
      5.33000000	     -5.70442454	     -2.68088409	     -0.39586130	      2.42817394	      0.70467258	     -0.20710908	     29.13682344	      5.49302673	     -4.46264104	    -33.12440403	     13.65387611	    -10.46478000	      0.00000000	     -6.80613268	      0.94765933	     23.07101685	      6.84822662	      0.39249587	    -31.81545856	      0.00000000	    -13.38861188	     -0.00179559	     -4.98676988
      5.34000000	     -5.66490514	     -2.41378946	      0.24993658	      2.44184108	      0.70272033	     -0.20706090	     29.41143892	      5.30066744	     -3.83523383	    -28.83241158	     13.40921236	    -10.37402151	      0.00000000	     -8.26301767	      1.10097718	     23.49414306	      7.28657761	      0.92493117	    -31.87759644	      0.00000000	    -13.62286595	     -0.29718040	     -5.72696107
      5.35000000	     -5.30304099	     -2.06049508	      0.87053938	      2.45566764	      0.70089085	     -0.20704979	     29.18200641	      5.00474387	     -2.97435603	    -24.41618251	     13.01107682	    -10.06937870	      0.00000000	    -10.03605060	      1.35294704	     23.87364721	      7.60280913	      1.46792788	    -31.92663847	      0.00000000	    -14.21440216	     -0.66629291	     -6.46157906
      5.36000000	     -4.99625450	     -1.53775921	      1.49364899	      2.46951515	      0.69876034	     -0.20709999	     28.93642895	      4.48188261	     -1.95726426	    -20.04970683	     12.49296204	     -9.67334546	      0.00000000	    -11.63890035	      1.78751683	     24.38884952	      7.66533326	      2.08545168	    -31.90096419	      0.00000000	    -14.72903119	     -1.22083828	     -7.20324681
      5.37000000	     -4.68507636	     -0.92463956	      2.14225572	      2.48349184	      0.69649488	     -0.20725685	     28.60650321	      3.78754609	     -0.93973298	    -15.79265255	     11.85725393	     -9.24871333	      0.00000000	    -13.17250234	      2.29852952	     25.02904716	      7.53243488	      2.70885375	    -31.77098482	      0.00000000	    -15.23408351	     -1.84878994	     -8.00512126
      5.38000000	     -4.28389112	     -0.25906915	      2.72875955	      2.49763582	      0.69420363	     -0.20752678	     28.12513780	      2.99921603	      0.07819335	    -11.75889459	     11.21862698	     -8.82195027	      0.00000000	    -14.72098708	      2.87778557	     25.73126581	      7.16043608	      3.41880648	    -31.59798627	      0.00000000	    -15.83032732	     -2.46849129	     -8.72069609
      5.39000000	     -3.94515967	      0.46486610	      3.29093701	      2.51201257	      0.69180714	     -0.20785266	     27.70158902	      2.10901084	      0.84673140	     -8.10889300	     10.71768679	     -8.27997039	      0.00000000	    -16.14171002	      3.49518171	     26.58202421	      6.59569380	      4.06874382	    -31.33067753	      0.00000000	    -16.29990487	     -3.13091233	     -9.43055970
      5.40000000	     -3.59622268	      1.15902276	      3.74136086	      2.52663950	      0.68943811	     -0.20817056	     27.28172190	      1.27229307	      1.48483694	     -4.94858987	     10.38201713	     -7.62920286	      0.00000000	    -17.51081487	      4.08817277	     27.46865870	      5.83422649	      4.70626566	    -30.97350557	      0.00000000	    -16.75261950	     -3.71214740	    -10.00882930
      5.41000000	     -3.25572057	      1.77684451	      4.08232928	      2.54164006	      0.68713820	     -0.20843710	     26.88811186	      0.56364870	      2.00918895	     -2.35095278	     10.25354937	     -6.97011116	      0.00000000	    -18.82614862	      4.60738610	     28.33284286	      4.91106596	      5.30815275	    -30.44593306	      0.00000000	    -17.11784893	     -4.17586344	    -10.44084464
      5.42000000	     -2.91099888	      2.27024951	      4.29976964	      2.55707030	      0.68497838	     -0.20863299	     26.50406691	      0.04948586	      2.52281835	     -0.36795383	     10.27601554	     -6.41361760	      0.00000000	    -20.10493226	      5.01956202	     29.04135786	      3.84684926	      5.91334589	    -29.59295266	      0.00000000	    -17.40459856	     -4.47189963	    -10.69514974
      5.43000000	     -2.57377397	      2.63058676	      4.35983094	      2.57296378	      0.68298386	     -0.20873722	     26.14525134	     -0.24296473	      3.15956239	      0.96044100	     10.36314694	     -6.13285046	      0.00000000	    -21.30647048	      5.36897019	     29.36732450	      2.59328687	      6.60210525	    -28.19122423	      0.00000000	    -17.58214384	     -4.59509562	    -10.69960637
      5.44000000	     -2.31362129	      2.86322358	      4.26001165	      2.58938036	      0.68111249	     -0.20870731	     25.86917647	     -0.32106483	      4.02998971	      1.63843064	     10.40627008	     -6.24063452	      0.00000000	    -22.35168476	      5.67731396	     29.20474013	      1.16384741	      7.23499781	    -26.21931772	      0.00000000	    -17.54380721	     -4.58477661	    -10.56198577
      5.45000000	     -2.10166249	      2.93275226	      4.01974690	      2.60627109	      0.67945592	     -0.20860851	     25.64654270	     -0.15165603	      5.07051820	      1.67280659	     10.27342962	     -6.84117039	      0.00000000	    -23.18148813	      5.95040643	     28.37551773	     -0.57568670	      7.89987937	    -23.52729479	      0.00000000	    -17.34729198	     -4.37323914	    -10.15106588
      5.46000000	     -1.94292006	      2.85879163	      3.75755816	      2.62346162	      0.67814980	     -0.20853185	     25.47493390	      0.20452075	      6.11421753	      1.10199257	      9.81317265	     -7.91252873	      0.00000000	    -23.63311484	      6.20333122	     26.72627838	     -2.85158351	      8.67494096	    -19.85200351	      0.00000000	    -17.05589982	     -3.96550150	     -9.70592667
